<svg width="48" height="48" viewBox="0 0 48 48" fill="none" xmlns="http://www.w3.org/2000/svg">
<path d="M0 24C0 10.7452 10.7452 0 24 0C37.2548 0 48 10.7452 48 24C48 37.2548 37.2548 48 24 48C10.7452 48 0 37.2548 0 24Z" fill="white"/>
<path d="M24.0001 17.6213C25.953 17.6213 27.2704 18.4649 28.0215 19.1698L30.9566 16.304C29.1539 14.6285 26.8081 13.6 24.0001 13.6C19.9326 13.6 16.4197 15.9342 14.7095 19.3316L18.0721 21.9431C18.9157 19.4356 21.2499 17.6213 24.0001 17.6213Z" fill="#EA4335"/>
<path d="M33.984 24.2311C33.984 23.376 33.9147 22.752 33.7644 22.1049H24V25.9644H29.7316C29.616 26.9236 28.992 28.368 27.6053 29.3387L30.8871 31.8809C32.8516 30.0667 33.984 27.3973 33.984 24.2311Z" fill="#4285F4"/>
<path d="M18.0837 26.0569C17.8641 25.4098 17.737 24.7164 17.737 24C17.737 23.2836 17.8641 22.5902 18.0721 21.9431L14.7094 19.3316C14.0045 20.7413 13.6001 22.3244 13.6001 24C13.6001 25.6756 14.0045 27.2587 14.7094 28.6684L18.0837 26.0569Z" fill="#FBBC05"/>
<path d="M24.0003 34.4C26.8083 34.4 29.1656 33.4756 30.8874 31.8809L27.6056 29.3387C26.7274 29.9511 25.5487 30.3787 24.0003 30.3787C21.2501 30.3787 18.9159 28.5645 18.0839 26.0569L14.7212 28.6685C16.4314 32.0658 19.9327 34.4 24.0003 34.4Z" fill="#34A853"/>
</svg>
